PathFileType	4	(X/Y/Z)	C:/Users/beibeiliu/ov580/test_trc/capture2\sequence.30_training_dense_left.trc
DataRate	CameraRate	NumFrames	NumMarkers	Units	OrigDataRate	OrigDataStartFrame	OrigNumFrames
120	120	24	19	mm	120	251	400
Frame#	Time	ThumbCMC			ThumbMCP			ThumbIP			ThumbTip			IndexMCP			IndexPIP			IndexTip			MiddleMCP			MiddlePIP			MiddleTip			RingMCP			RingPIP			RingTip			PinkyMCP			PinkyPIP			PinkyTip			BackHand1			BackHand2			BackHand3	
		X0	Y0	Z0	X1	Y1	Z1	X2	Y2	Z2	X3	Y3	Z3	X4	Y4	Z4	X5	Y5	Z5	X6	Y6	Z6	X7	Y7	Z7	X8	Y8	Z8	X9	Y9	Z9	X10	Y10	Z10	X11	Y11	Z11	X12	Y12	Z12	X13	Y13	Z13	X14	Y14	Z14	X15	Y15	Z15	X16	Y16	Z16	X17	Y17	Z17	X18	Y18	Z18	
250	2.08333	-206.507	62.0849	0.441137	-178.849	77.2371	-20.079	-164.03	80.0601	-43.6562	-152.48	76.8679	-59.9513	-224.582	39.8573	-64.2534	-214.185	39.826	-88.9984	-198.405	47.112	-115.826	-208.052	15.1716	-68.8195	-198.871	21.0088	-94.5645	-180.346	27.5648	-116.215	-194.515	2.73593	-57.0048	-181.958	-2.96514	-83.7319	-172.267	2.64767	-107.882	-174.112	-6.31485	-41.8918	-160.415	-12.3641	-61.3144	-151.523	-21.5394	-80.168	-206.482	3.58998	-7.31758	-207.257	7.95343	22.1413	-224.99	27.6697	3.85646	
251	2.09167	-208.065	66.9835	2.49835	-180.028	78.02	-17.4749	-164.605	80.5508	-42.3101	-152.799	74.1447	-62.9895	-222.329	38.6254	-66.2989	-213.073	42.8493	-91.3104	-198.764	48.801	-111.698	-207.824	18.2614	-68.1237	-193.681	20.8154	-92.9065	-172.392	34.5553	-112.082	-194.047	0.812691	-59.9331	-184.28	-0.0255275	-84.6137	-168.17	5.06692	-108.697	-174.748	-4.77878	-41.3521	-163.364	-12.6515	-60.8983	-155.197	-23.6635	-83.512	-207.436	4.24336	-9.74481	-208.913	7.20658	22.4902	-225.875	25.2306	2.16029	
252	2.1	-207.835	64.2285	2.85746	-181.13	78.9407	-22.9148	-166.739	82.0529	-42.5791	-152.839	76.6797	-63.1385	-223.064	39.8243	-63.4511	-209.256	42.7701	-92.7257	-192.975	49.771	-113.17	-205.222	17.4302	-69.5365	-191.389	25.2526	-92.9814	-164.388	44.9479	-108.03	-193.608	2.53773	-59.3016	-183.037	1.96641	-82.7875	-165.257	7.56512	-105.715	-172.285	-9.00003	-43.1766	-164.245	-11.1777	-65.8586	-156.953	-21.0933	-85.0291	-206.148	5.39622	-7.63539	-209.635	7.28827	21.6855	-227.727	27.3165	1.80239	
253	2.10833	-208.572	68.598	3.82258	-181.503	76.3941	-20.1475	-167.203	82.1034	-44.6308	-153.858	76.9765	-65.1943	-219.255	36.4114	-66.4921	-211.053	44.0504	-89.9244	-192.865	52.7235	-110.205	-203.632	19.9665	-70.0956	-188.936	28.1258	-91.8031	-160.948	48.7195	-98.566	-190.85	1.89873	-61.776	-177.871	2.71298	-84.395	-159.999	15.1594	-107.199	-173.669	-8.16591	-43.2134	-163.873	-11.6478	-65.4222	-156.627	-22.966	-81.9252	-205.942	2.73626	-10.3835	-208.541	5.50724	19.2605	-227.342	30.7547	-0.11775	
254	2.11667	-207.853	64.6598	-0.294056	-181.526	78.7468	-21.9601	-168.316	80.6623	-43.394	-154.964	71.6322	-66.8477	-220.881	39.946	-64.0884	-209.39	45.725	-90.7127	-185.88	55.6034	-108.728	-202.517	19.062	-64.8202	-184.027	30.5101	-89.7375	-155	56.8413	-89.3992	-191.361	3.20127	-58.3531	-177.154	7.73989	-86.4243	-156.536	19.8037	-103.906	-173.043	-8.24516	-41.257	-166.089	-10.0802	-62.8321	-157.53	-19.6267	-85.1438	-207.148	4.6462	-9.43747	-208.289	8.90091	20.5173	-227.316	30.796	2.98457	
255	2.125	-206.845	63.7349	1.00807	-182.51	76.8179	-19.2397	-168.579	80.7805	-43.2382	-155.81	69.1713	-65.4131	-220.487	38.2924	-62.7348	-205.361	43.0224	-91.1995	-184.072	51.6321	-105.027	-202.98	23.7858	-67.7377	-180.508	30.9734	-85.9702	-153.771	56.0093	-80.4143	-192.595	5.87833	-58.1304	-173.331	7.90536	-84.7217	-155.546	25.2219	-102.211	-175.167	-7.76478	-43.9175	-163.176	-12.0345	-60.0287	-154.439	-19.8087	-84.8164	-206.381	5.44729	-8.3763	-209.124	8.77424	21.7115	-225.984	28.1231	4.86302	
256	2.13333	-208.415	66.5525	4.42855	-182.437	78.6326	-19.2467	-169.482	76.8857	-42.9208	-155.449	70.2962	-66.4594	-220.869	39.5835	-61.046	-206.737	45.8451	-91.8286	-181.678	53.6428	-104.311	-199.68	19.3743	-64.218	-179.021	31.7426	-86.0318	-155.001	56.5095	-78.2888	-190.76	6.15044	-60.9047	-173.893	8.69252	-83.2095	-154.269	26.401	-97.5242	-174.521	-7.55595	-41.2395	-166.981	-9.21859	-62.4178	-156.317	-16.7515	-82.7679	-204.816	4.37098	-8.1264	-209.792	7.2011	22.4778	-225.609	26.5891	5.10391	
257	2.14167	-208.695	67.4789	4.85343	-182.958	78.5591	-20.3978	-169.674	77.2063	-40.3746	-155.506	67.9299	-62.0732	-221.28	38.4672	-65.6706	-203.75	41.6499	-90.1914	-182.339	50.8009	-101.942	-203.425	22.2962	-67.2944	-175.755	33.991	-85.7077	-156.223	58.9087	-76.3111	-191.481	4.86749	-55.9156	-174.272	8.33576	-81.9075	-156.968	28.1437	-96.3528	-173.951	-6.9349	-41.0809	-163.903	-9.83023	-63.6717	-153.751	-18.9399	-83.7558	-204.917	4.37131	-9.14544	-209.545	5.58244	23.4392	-224.596	26.6293	-0.130229	
258	2.15	-208.371	64.8109	3.79047	-182.98	75.846	-15.1092	-168.297	81.8824	-43.6121	-156.897	70.0874	-62.3216	-219.408	37.4049	-63.6131	-205.955	40.7988	-89.1425	-183.702	50.9598	-102.904	-200.406	18.6637	-65.55	-178.139	35.7204	-86.5672	-152.753	57.1345	-73.2754	-190.417	5.63639	-59.6909	-175.294	11.9891	-84.6113	-151.522	29.6444	-97.9143	-175.415	-6.60944	-44.1356	-162.203	-11.8847	-64.8783	-153.789	-15.1274	-82.318	-204.66	2.00177	-5.96794	-210.866	7.3945	21.431	-225.013	27.1594	2.37724	
259	2.15833	-208.663	66.2546	1.3103	-183.439	78.0902	-18.8217	-170.391	79.7757	-45.4386	-156.706	73.3897	-64.5804	-219.601	36.6859	-63.0242	-211.023	44.6752	-89.7896	-186.881	53.884	-104.936	-201.951	20.1868	-66.4313	-181.141	31.5708	-86.9084	-155.079	60.007	-76.7279	-188.875	4.31017	-59.8878	-175.025	9.70354	-82.0462	-154.392	31.4958	-98.0348	-176.204	-4.34098	-40.137	-161.319	-10.8448	-62.0566	-153.869	-13.1085	-86.5608	-204.992	0.429934	-4.90599	-209.788	7.40356	22.1647	-229.569	29.4178	0.788158	
260	2.16667	-209.19	64.5847	2.09161	-185.941	79.4064	-18.9714	-173.315	83.1115	-42.9079	-160.534	77.0897	-61.583	-220.12	37.2735	-65.2329	-209.436	41.4073	-88.334	-188.96	54.6752	-107.105	-204.272	20.8992	-65.9633	-184.754	30.5383	-89.2667	-157.353	57.4954	-85.5232	-192.67	7.70896	-57.6376	-178.393	10.3802	-83.4459	-156.485	27.3046	-98.681	-173.73	-6.34156	-46.1565	-164.261	-8.86633	-62.0946	-153.199	-12.6522	-89.0122	-203.526	1.66494	-6.28502	-208.602	5.66107	21.5927	-225.144	26.3195	2.17191	
261	2.175	-211.184	64.5248	6.1582	-187.838	80.8819	-17.1704	-175.275	85.1082	-43.7889	-163.937	83.9488	-63.253	-224	41.4653	-64.7972	-212.988	46.8568	-92.3229	-189.645	52.775	-108.699	-206.548	19.0054	-67.2165	-186.354	25.8107	-91.8858	-162.337	46.4156	-96.2304	-191.446	4.91315	-56.7072	-175.858	6.0705	-85.2606	-160.099	23.7168	-102.622	-174.811	-3.88576	-42.6936	-161.914	-7.30835	-62.5658	-151.163	-9.54089	-87.6645	-203.752	3.56845	-10.926	-207.593	3.31064	18.7896	-229.767	29.4675	1.68202	
262	2.18333	-212.149	64.5424	6.23092	-189.889	78.1393	-16.8453	-180.162	89.974	-35.8842	-167.489	93.4379	-63.6585	-220.807	38.5945	-65.0228	-213.363	47.9765	-92.6869	-191.677	52.543	-112.306	-207.247	19.0786	-64.2281	-193.287	23.5645	-93.586	-165.773	40.3424	-106.564	-191.639	4.19885	-58.4396	-178.08	5.40679	-86.2972	-164.673	18.9221	-105.151	-172.313	-6.34255	-44.2664	-158.529	-8.12019	-65.6027	-151.463	-12.0966	-84.0347	-207.168	5.419	-7.28518	-208.344	3.50147	23.4541	-225.712	26.6686	2.96098	
263	2.19167	-213.498	67.8279	7.44445	-192.73	84.2384	-16.202	-183.155	95.1852	-37.81	-174.22	99.5797	-58.4624	-221.882	42.992	-64.8032	-212.533	47.9274	-92.6004	-197.842	54.3579	-111.898	-208.048	19.4461	-64.6109	-194.38	21.606	-95.3819	-170.239	36.9536	-115.224	-194.992	7.01416	-58.5268	-181.362	3.33073	-83.306	-168.222	15.9018	-107.352	-173.339	-2.69861	-43.6528	-160.752	-5.58796	-66.7544	-149.598	-12.1798	-87.1769	-203.256	3.78348	-9.19882	-207.254	4.61318	22.4546	-227.815	29.7679	-1.35193	
264	2.2	-212.341	64.3537	8.35284	-194.738	82.654	-10.0445	-187.473	98.0387	-37.7946	-181.132	106.01	-54.0026	-218.584	41.5331	-64.3653	-213.932	50.0525	-87.9194	-198.003	53.5916	-110.734	-206.32	17.9726	-68.163	-197.225	23.9422	-94.5342	-177.44	34.8858	-116.815	-193.321	5.89525	-56.7798	-184.369	6.25699	-85.4735	-170.488	14.2374	-107.838	-172.017	-4.68687	-46.1958	-162.115	-7.0581	-63.1514	-152.147	-9.9262	-83.9382	-205.451	7.3521	-9.53958	-207.698	5.78369	19.157	-227.755	28.2192	2.33987	
265	2.20833	-214.258	66.8731	4.51923	-197.442	81.6701	-11.1528	-194.786	98.9648	-33.0989	-189.215	106.209	-54.1575	-217.687	43.5579	-60.9416	-208.668	52.3447	-91.2889	-194.201	56.0446	-109.127	-207.96	21.5227	-65.0746	-196.003	21.07	-91.3306	-177.316	31.6291	-117.121	-194.893	7.68581	-60.4207	-182.055	3.68592	-84.9941	-170.847	11.3527	-107.094	-173.917	-3.90174	-44.2813	-161.101	-6.5598	-67.137	-151	-11.5721	-87.1683	-206.535	4.46433	-7.87864	-209.756	4.32419	17.916	-229.429	30.4938	0.906366	
266	2.21667	-215.917	65.906	5.70263	-202.609	80.6835	-13.7472	-201.795	96.2249	-34.624	-198.832	104.965	-56.1301	-216.717	44.5325	-61.8879	-208.89	54.767	-86.9144	-191.718	62.33	-106.488	-205.62	19.1546	-65.2474	-195.399	22.6812	-92.6395	-176.302	32.0003	-119.52	-195.129	7.63926	-58.481	-183.316	4.81468	-83.5183	-168.422	10.2455	-111.941	-174.476	-3.39644	-46.8305	-161.696	-8.34413	-66.1495	-154.081	-11.3628	-87.2962	-207.419	4.81636	-11.1258	-206.56	3.6755	20.6002	-228.026	29.8623	2.61368	
267	2.225	-217.074	65.6619	8.05228	-208.087	83.5704	-13.4278	-205.339	93.6836	-33.6941	-206.021	105.475	-56.9277	-216.545	48.2127	-61.9765	-201.909	60.9393	-87.649	-180.145	68.3712	-104.63	-205.468	22.1038	-68.7509	-195.174	24.9488	-91.1359	-178.623	34.5326	-117.985	-192.283	6.1189	-56.6511	-182.987	6.64007	-86.0266	-170.535	10.3117	-107.882	-176.278	-1.62715	-45.0071	-164.135	-6.57362	-64.9339	-154.75	-12.32	-85.9446	-204.223	2.08773	-9.10607	-206.117	3.96697	22.6035	-225.994	29.035	3.59455	
268	2.23333	-218.062	66.1405	10.3501	-207.552	79.7651	-13.1454	-209.182	94.2551	-39.1194	-206.148	100.293	-56.6588	-214.257	54.8497	-65.0815	-201.128	63.652	-83.1659	-174.167	75.4793	-98.9913	-204.384	23.2359	-67.7019	-191.598	27.1911	-94.7291	-178.665	35.6697	-114.862	-191.384	7.17314	-58.8163	-183.496	9.15031	-84.3162	-171.091	13.1374	-106.137	-173.825	-4.85082	-44.6085	-165.732	-5.28752	-64.7599	-154.26	-9.80616	-89.0558	-205.613	3.25836	-8.804	-208.718	5.66136	22.978	-226.308	27.4808	0.130138	
269	2.24167	-218.318	68.5241	12.3031	-209.011	82.8394	-14.787	-207.358	90.1072	-38.1121	-205.142	96.5191	-64.0682	-212.555	54.4702	-61.1598	-194.925	65.8779	-81.8033	-171.127	79.9428	-91.0458	-203.353	24.0468	-64.2459	-192.604	28.8071	-89.6416	-176.075	37.6351	-113.908	-194.352	11.2696	-61.6208	-182.996	10.5007	-87.4263	-167.69	13.1021	-111.476	-175.842	-2.38062	-42.756	-165.356	-5.2482	-64.1413	-156.547	-11.5732	-84.1429	-205.01	6.26647	-7.59006	-212.198	7.38028	20.9253	-227.854	33.0478	4.36389	
270	2.25	-214.98	63.6419	10.8795	-208.072	81.1879	-16.7872	-206.374	88.2911	-41.8069	-203.743	91.9501	-62.8528	-210.429	55.3397	-63.133	-189.742	66.4895	-79.76	-166.106	80.1557	-86.0318	-203.493	28.0901	-69.2417	-191.104	30.7596	-90.3769	-171.873	42.0861	-116.351	-193.232	11.3326	-60.378	-181.516	7.7064	-82.9397	-168.91	15.8843	-112.034	-175.751	-1.43117	-42.5241	-167.9	-2.7528	-62.2166	-157.52	-14.0393	-87.4911	-205.205	5.87656	-8.77177	-208.833	7.34661	20.8851	-227.899	29.992	2.63774	
271	2.25833	-216.415	65.5554	9.1914	-208.501	81.6516	-17.8693	-206.212	87.8015	-42.2762	-201.514	86.1222	-64.2974	-208.713	57.835	-64.9704	-189.034	71.199	-79.0556	-160.801	81.3917	-85.346	-200.844	27.3296	-70.0295	-192.057	34.5434	-90.5018	-174.263	42.3829	-113.192	-192.029	12.0837	-58.4195	-182.516	12.0769	-85.695	-167.983	13.7044	-109.033	-176.01	0.227801	-45.0549	-164.506	-6.26509	-66.8872	-156.482	-12.4878	-89.2635	-204.152	4.6874	-11.6722	-210.775	7.46145	20.1753	-225.389	31.5291	0.274329	
272	2.26667	-216.442	67.5014	11.6753	-207.314	78.8622	-13.1318	-206.686	86.5534	-44.8365	-203.895	89.8106	-60.9018	-207.641	52.9783	-62.9207	-191.794	68.1661	-78.7251	-165.694	77.0873	-88.4781	-200.344	27.3862	-69.1761	-185.909	32.8213	-93.202	-173.695	42.5379	-113.413	-191.272	11.7648	-61.6706	-183.463	11.3543	-82.8145	-169.841	15.4662	-109.43	-175.455	-1.37727	-42.0139	-165.044	-6.39117	-64.073	-156.773	-14.3703	-83.2062	-204.731	4.85236	-6.96893	-212	8.43311	21.8761	-225.938	32.9187	2.67524	
273	2.275	-217.148	67.3323	9.37745	-207.312	80.7274	-11.5923	-206.383	86.6468	-40.4503	-204.876	92.3699	-60.3791	-212.021	56.3294	-61.0764	-195.2	68.6897	-81.7741	-172.063	79.1683	-96.1619	-201.235	28.7478	-66.2865	-188.468	29.8235	-89.6702	-175.066	39.8255	-115.105	-189.523	9.41799	-61.162	-183.021	11.393	-82.5267	-168.61	13.8305	-111.196	-175.581	0.377706	-41.8872	-163.289	-7.64248	-64.2097	-160.232	-13.9336	-83.7364	-205.219	6.43579	-7.26646	-210.561	8.68784	21.5078	-223.761	31.1199	1.71037	
